Coordinates
version=1
nRows=13
nColumns=36
inDegrees=yes

Units are S.I. units (second, meters, Newtons, ...)
If the header above contains a line with 'inDegrees', this indicates whether rotational values are in degrees (yes) or radians (no).

endheader
time	pelvis_tilt	pelvis_list	pelvis_rotation	pelvis_tx	pelvis_ty	pelvis_tz	hip_flexion_r	hip_adduction_r	hip_rotation_r	knee_angle_r	knee_angle_r_beta	ankle_angle_r	subtalar_angle_r	mtp_angle_r	hip_flexion_l	hip_adduction_l	hip_rotation_l	knee_angle_l	knee_angle_l_beta	ankle_angle_l	subtalar_angle_l	mtp_angle_l	lumbar_extension	lumbar_bending	lumbar_rotation	arm_flex_r	arm_add_r	arm_rot_r	elbow_flex_r	pro_sup_r	arm_flex_l	arm_add_l	arm_rot_l	elbow_flex_l	pro_sup_l
      3.68750000	    -13.87596000	     -0.93557133	      6.22380504	      0.22763123	      0.82215017	     -0.17787608	     50.37940522	    -12.00566660	      5.84480937	     52.35227751	      0.91371961	      1.89332973	    -29.80811688	     -7.49999987	     51.98333417	     -4.82499571	     -3.73584542	     51.56275649	      0.89993987	      3.88215761	    -25.25443116	     -7.49999987	    -32.52324586	     -6.22484264	     -3.12931232	      0.64259616	     -9.42823500	      2.91926355	     93.08697690	     90.51258909	      9.80569582	    -18.13124593	    -13.83238882	    114.34001335	     86.68371357
      3.69166670	    -13.97413766	     -0.87770511	      6.11796085	      0.22751278	      0.82543323	     -0.18121054	     50.13506111	    -12.17760666	      5.88883377	     51.68284496	      0.90203581	      1.61351296	    -29.40333042	     -7.49999987	     51.74605839	     -4.67406038	     -3.85201024	     50.97681653	      0.88971329	      3.69448365	    -25.43354501	     -7.49999987	    -32.56018764	     -6.22069804	     -3.24640803	      0.96993563	     -9.73570410	      3.69971755	     93.68564518	     90.37387534	      9.94353506	    -17.60872607	    -13.09906778	    113.60887946	     85.99549596
      3.69583330	    -14.11834454	     -0.86623159	      5.99346337	      0.22635511	      0.82699723	     -0.17963609	     49.95536539	    -12.22175389	      5.91259358	     50.97318721	      0.88964995	      1.31564494	    -29.09442236	     -7.49999987	     51.52018667	     -4.59381225	     -3.86976030	     50.27197747	      0.87741153	      3.47548977	    -25.44684102	     -7.49999987	    -32.47056937	     -6.25445262	     -3.25503791	      1.24470898	     -9.95303101	      4.45851813	     94.23134202	     90.05838500	     10.07639136	    -17.19982907	    -12.42887246	    113.03659477	     85.33664520
      3.70000000	    -14.05577828	     -0.81566162	      5.85951582	      0.22808468	      0.82920619	     -0.18337598	     49.47320430	    -12.45025433	      5.79225269	     50.21271341	      0.87637718	      1.13126625	    -28.51916626	     -7.49999987	     50.90991503	     -4.40913433	     -3.88891603	     49.50819103	      0.86408094	      3.35236117	    -25.54970284	     -7.49999987	    -32.65158081	     -6.17291619	     -3.10183639	      1.40968032	    -10.33881267	      4.77729861	     95.13059915	     95.17848866	     10.50267887	    -16.52806433	    -11.76447677	    112.28621510	     86.16731258
      3.70416670	    -14.23235911	     -0.83756032	      5.71132376	      0.22673012	      0.82995565	     -0.18118162	     49.34209311	    -12.40941855	      5.71802806	     49.45036883	      0.86307175	      0.65081140	    -28.52596543	     -7.49999987	     50.64403938	     -4.41055683	     -3.92253048	     48.75350516	      0.85090919	      3.04072423	    -25.48081436	     -7.49999987	    -32.48319902	     -6.21395610	     -3.08522552	      1.67476000	    -10.51205368	      5.44275725	     95.60816517	     94.81297222	     10.62425375	    -16.19042273	    -11.35005041	    112.05160323	     85.77685847
      3.70833330	    -14.39505109	     -0.80827446	      5.47423356	      0.22889925	      0.82796399	     -0.18379585	     49.31053111	    -12.52012136	      5.65762122	     49.04711111	      0.85603358	      0.45319709	    -28.58203785	     -7.49999987	     50.51861583	     -4.33420152	     -4.00498755	     48.43513680	      0.84535261	      2.95793560	    -25.54767209	     -7.49999987	    -32.11363467	     -6.22263823	     -2.95437859	      1.82924930	    -10.95113652	      6.28659461	     96.36022824	     94.49746394	     10.47014127	    -15.68772647	    -10.94286366	    111.91336399	     85.43273028
      3.71250000	    -14.53781245	     -0.75965803	      5.26766011	      0.22879109	      0.83260903	     -0.18454346	     49.00507165	    -12.50707836	      5.69751563	     48.19041465	      0.84108140	      0.36733008	    -28.15081910	     -7.49999987	     50.18477988	     -4.29598430	     -4.22429446	     47.82444378	      0.83469401	      2.77146232	    -25.65182476	     -7.49999987	    -31.74709475	     -6.32512405	     -2.83417547	      2.05214998	    -11.18398077	      7.12867974	     96.75491340	     93.09038923	     10.62454922	    -15.23133409	    -10.47875988	    111.52645300	     84.11646208
      3.71666670	    -14.80343725	     -0.86925681	      5.22400564	      0.22468060	      0.83509108	     -0.18089023	     48.91958037	    -12.32998396	      5.57668972	     47.48416357	      0.82875500	      0.46484410	    -28.12889365	     -7.49999987	     50.19110968	     -4.41773597	     -4.29491755	     47.24540178	      0.82458782	      2.66658891	    -25.55453058	     -7.49999987	    -31.32243409	     -6.43876190	     -2.94548656	      2.41847458	    -10.97958923	      7.31154141	     97.11312356	     93.14729487	     10.77521530	    -14.87303311	    -10.30028212	    111.65301813	     84.13061857
      3.72083330	    -14.89339474	     -0.98032487	      5.08832949	      0.22595381	      0.83660076	     -0.18167339	     48.49278467	    -12.13652636	      5.47588817	     46.51972237	      0.81192232	      0.08684277	    -28.08681359	     -7.49999987	     49.75914594	     -4.56755634	     -4.36578871	     46.33719711	      0.80873666	      2.00180279	    -25.57176393	     -7.49999987	    -31.32201190	     -6.37338075	     -3.03940251	      2.90784840	    -11.29756696	      8.62582001	     97.72659198	     94.80442377	     10.41528720	    -14.16943183	    -10.44906268	    112.18314347	     84.35364849
      3.72500000	    -15.26676576	     -1.13583213	      5.06787943	      0.22510058	      0.83572107	     -0.18066380	     48.60030368	    -11.96350261	      5.30247090	     45.95325077	      0.80203553	      0.04875078	    -28.11613235	     -7.49999987	     49.93048363	     -4.75383693	     -4.43670836	     45.81694209	      0.79965649	      1.84973250	    -25.34669160	     -7.49999987	    -30.75745988	     -6.46591428	     -3.02228486	      2.94012697	    -11.19485384	      9.09303479	     98.24817521	     94.50690012	     10.63510699	    -13.84015848	    -10.10963666	    112.56149044	     83.93682007
      3.72916670	    -15.57940721	     -1.22459912	      5.02505204	      0.22537060	      0.83702705	     -0.18225220	     48.64560159	    -11.90349237	      5.18349553	     45.48208072	      0.79381206	     -0.37120053	    -28.52122703	     -7.49999987	     49.99086517	     -4.83727473	     -4.54733688	     45.28461977	      0.79036572	      1.63130883	    -25.42264932	     -7.49999987	    -30.17640123	     -6.44252946	     -2.90866104	      2.92883000	    -11.17376854	      9.49556823	     98.84667754	     93.97370704	     10.58885544	    -13.52428176	     -9.63680010	    113.01755957	     83.51133017
      3.73333330	    -15.78220247	     -1.24387843	      4.91528173	      0.22532529	      0.84109506	     -0.18422844	     48.36598611	    -11.92246234	      5.02485272	     44.67478403	      0.77972207	     -0.60981886	    -28.35076538	     -7.49999987	     49.68694669	     -4.83813664	     -4.77656020	     44.41016492	      0.77510360	      1.56249580	    -25.23754777	     -7.49999987	    -29.62460857	     -6.38136198	     -2.80156633	      2.97111578	    -11.16600469	      9.97342561	     99.19849471	     92.03859598	     10.63141422	    -13.12608079	     -9.07076080	    113.10930178	     81.83219006
      3.73750000	    -15.75044405	     -1.31602361	      4.77999719	      0.22467232	      0.84622061	     -0.18502062	     47.67335966	    -11.90254342	      4.69058048	     43.50811782	      0.75935991	     -0.47186304	    -27.56591569	     -7.49999987	     49.03308378	     -4.86392498	     -4.94109338	     43.40415791	      0.75754546	      1.40335376	    -25.03871670	     -7.49999987	    -29.39915118	     -6.20475329	     -3.08735869	      3.53990152	    -11.01663030	     10.43489475	     99.03828042	     96.82479221	     10.61272105	    -12.85662961	     -9.33626082	    113.29939188	     82.60754792
